HIERARCHY
ROOT pelvis
{
  OFFSET 0 100 0
  CHANNELS 6 Xposition Yposition Zposition Zrotation Xrotation Yrotation
  JOINT pelvis_right_femur
  {
    OFFSET -10.78128 -3.44521 -0.5502486
    CHANNELS 3 Zrotation Xrotation Yrotation
    JOINT right_femur_tibia
    {
      OFFSET -0.8047443 -44.0398 -0.1307829
      CHANNELS 3 Zrotation Xrotation Yrotation
      JOINT right_tibia_foot
      {
        OFFSET 3.006224 -47.83518 -5
        CHANNELS 3 Zrotation Xrotation Yrotation
        End Site
        {
          OFFSET 0 -5 15
        }
      }
    }
  }
  JOINT pelvis_left_femur
  {
    OFFSET 10.78128 -3.44521 -0.5502486
    CHANNELS 3 Zrotation Xrotation Yrotation
    JOINT left_femur_tibia
    {
      OFFSET 0.8047443 -44.0398 -0.1307829
      CHANNELS 3 Zrotation Xrotation Yrotation
      JOINT left_tibia_foot
      {
        OFFSET -4.370144 -48.10324 -4.275266
        CHANNELS 3 Zrotation Xrotation Yrotation
        End Site
        {
          OFFSET 0 -5 15
        }
      }
    }
  }
  JOINT pelvis_spine1
  {
    OFFSET 0 6.468898 -3.129235
    CHANNELS 3 Zrotation Xrotation Yrotation
    JOINT spine1
    {
      OFFSET 0 23.15396 4.99043
      CHANNELS 3 Zrotation Xrotation Yrotation
      JOINT spine2
      {
        OFFSET 0 20.79997 -5.064912
        CHANNELS 3 Zrotation Xrotation Yrotation
        JOINT neck
        {
          OFFSET 0 14.38658 9.616178
          CHANNELS 3 Zrotation Xrotation Yrotation
          End Site
          {
            OFFSET 0 20 0
          }
        }
      }
      JOINT right_manubrium
      {
        OFFSET -5.722621 16.35077 3.967754
        CHANNELS 3 Zrotation Xrotation Yrotation
        JOINT right_clavicle
        {
          OFFSET -13.16364 1.694482 -4.693211
          CHANNELS 3 Zrotation Xrotation Yrotation
          JOINT right_humerus
          {
            OFFSET -28.5034 -0.3100689 -2.792744
            CHANNELS 3 Zrotation Xrotation Yrotation
            JOINT right_radius
            {
              OFFSET -25.15693 0.02248979 -1.271978
              CHANNELS 3 Zrotation Xrotation Yrotation
              End Site
              {
                OFFSET -15 0 0
              }
            }
          }
        }
      }
      JOINT left_manubrium
      {
        OFFSET 5.722621 16.35077 3.967754
        CHANNELS 3 Zrotation Xrotation Yrotation
        JOINT left_clavicle
        {
          OFFSET 13.16364 1.694482 -4.693211
          CHANNELS 3 Zrotation Xrotation Yrotation
          JOINT left_humerus
          {
            OFFSET 29.39168 -1.063119 -2.237045
            CHANNELS 3 Zrotation Xrotation Yrotation
            JOINT left_radius
            {
              OFFSET 24.59957 -0.9528479 0.9047498
              CHANNELS 3 Zrotation Xrotation Yrotation
              End Site
              {
                OFFSET 15 -0 -0
              }
            }
          }
        }
      }
    }
  }
}
MOTION
Frames: 13
Frame Time: 0.0416666666667
-348.7589 47.92748 515.2092 15.50971 -6.925951 66.43275 7.162095 -0.1118641 8.109037 -0 33.03224 -0 -9.5044 -1.32348 -2.422005 3.923049 -9.664069 4.154261 -0 43.96691 -0 22.87082 5.35538 5.512125 1.087589 -1.993336 10.22329 -1.765826 14.29946 -4.46502 1.457808 17.72219 -0.6464885 -3.628347 -17.93454 5.018399 -4.504276 -34.61346 10.18567 89.34281 30.48529 -5.172339 -0 0 35.83761 -17.67842 15.92413 17.55358 0.05827901 -15.58796 -3.965987 -88.89805 10.69153 43.03516 0 0 -20.86637 5.848673 8.508445 11.17098
-342.3917 48.03887 515.9243 15.41208 -7.144754 65.63569 7.162095 -0.1118641 8.109037 -0 33.03224 -0 -9.5044 -1.32348 -2.422005 3.923049 -9.664069 4.154261 -0 43.96691 -0 22.87082 5.35538 5.512125 1.087589 -1.993336 10.22329 -1.765826 14.29946 -4.46502 1.457808 17.72219 -0.6464885 -3.628347 -17.93454 5.018399 -4.504276 -34.61346 10.18567 89.34281 30.48529 -5.172339 -0 0 35.83761 -17.67842 15.92413 17.55358 0.05827901 -15.58796 -3.965987 -88.89805 10.69153 43.03516 0 0 -20.86637 5.848673 8.508445 11.17098
-336.0353 48.15026 516.7305 15.31135 -7.362188 64.83786 7.162095 -0.1118641 8.109037 -0 33.03224 -0 -9.5044 -1.32348 -2.422005 3.923049 -9.664069 4.154261 -0 43.96691 -0 22.87082 5.35538 5.512125 1.087589 -1.993336 10.22329 -1.765826 14.29946 -4.46502 1.457808 17.72219 -0.6464885 -3.628347 -17.93454 5.018399 -4.504276 -34.61346 10.18567 89.34281 30.48529 -5.172339 -0 0 35.83761 -17.67842 15.92413 17.55358 0.05827901 -15.58796 -3.965987 -88.89805 10.69153 43.03516 0 0 -20.86637 5.848673 8.508445 11.17098
-329.6911 48.26165 517.6277 15.20752 -7.578208 64.03926 7.162095 -0.1118641 8.109037 -0 33.03224 -0 -9.5044 -1.32348 -2.422005 3.923049 -9.664069 4.154261 -0 43.96691 -0 22.87082 5.35538 5.512125 1.087589 -1.993336 10.22329 -1.765826 14.29946 -4.46502 1.457808 17.72219 -0.6464885 -3.628347 -17.93454 5.018399 -4.504276 -34.61346 10.18567 89.34281 30.48529 -5.172339 -0 0 35.83761 -17.67842 15.92413 17.55358 0.05827901 -15.58796 -3.965987 -88.89805 10.69153 43.03516 0 0 -20.86637 5.848673 8.508445 11.17098
-323.3604 48.37304 518.6157 15.10061 -7.792771 63.23986 7.162095 -0.1118641 8.109037 -0 33.03224 -0 -9.5044 -1.32348 -2.422005 3.923049 -9.664069 4.154261 -0 43.96691 -0 22.87082 5.35538 5.512125 1.087589 -1.993336 10.22329 -1.765826 14.29946 -4.46502 1.457808 17.72219 -0.6464885 -3.628347 -17.93454 5.018399 -4.504276 -34.61346 10.18567 89.34281 30.48529 -5.172339 -0 0 35.83761 -17.67842 15.92413 17.55358 0.05827901 -15.58796 -3.965987 -88.89805 10.69153 43.03516 0 0 -20.86637 5.848673 8.508445 11.17098
-317.0446 48.48443 519.6943 14.99063 -8.005835 62.43964 7.162095 -0.1118641 8.109037 -0 33.03224 -0 -9.5044 -1.32348 -2.422005 3.923049 -9.664069 4.154261 -0 43.96691 -0 22.87082 5.35538 5.512125 1.087589 -1.993336 10.22329 -1.765826 14.29946 -4.46502 1.457808 17.72219 -0.6464885 -3.628347 -17.93454 5.018399 -4.504276 -34.61346 10.18567 89.34281 30.48529 -5.172339 -0 0 35.83761 -17.67842 15.92413 17.55358 0.05827901 -15.58796 -3.965987 -88.89805 10.69153 43.03516 0 0 -20.86637 5.848673 8.508445 11.17098
-310.7448 48.59582 520.8632 14.8776 -8.217356 61.63858 7.162095 -0.1118641 8.109037 -0 33.03224 -0 -9.5044 -1.32348 -2.422005 3.923049 -9.664069 4.154261 -0 43.96691 -0 22.87082 5.35538 5.512125 1.087589 -1.993336 10.22329 -1.765826 14.29946 -4.46502 1.457808 17.72219 -0.6464885 -3.628347 -17.93454 5.018399 -4.504276 -34.61346 10.18567 89.34281 30.48529 -5.172339 -0 0 35.83761 -17.67842 15.92413 17.55358 0.05827901 -15.58796 -3.965987 -88.89805 10.69153 43.03516 0 0 -20.86637 5.848673 8.508445 11.17098
-304.4624 48.70721 522.1222 14.76153 -8.42729 60.83668 7.162095 -0.1118641 8.109037 -0 33.03224 -0 -9.5044 -1.32348 -2.422005 3.923049 -9.664069 4.154261 -0 43.96691 -0 22.87082 5.35538 5.512125 1.087589 -1.993336 10.22329 -1.765826 14.29946 -4.46502 1.457808 17.72219 -0.6464885 -3.628347 -17.93454 5.018399 -4.504276 -34.61346 10.18567 89.34281 30.48529 -5.172339 -0 0 35.83761 -17.67842 15.92413 17.55358 0.05827901 -15.58796 -3.965987 -88.89805 10.69153 43.03516 0 0 -20.86637 5.848673 8.508445 11.17098
-298.1987 48.81861 523.4711 14.64243 -8.635596 60.03391 7.162095 -0.1118641 8.109037 -0 33.03224 -0 -9.5044 -1.32348 -2.422005 3.923049 -9.664069 4.154261 -0 43.96691 -0 22.87082 5.35538 5.512125 1.087589 -1.993336 10.22329 -1.765826 14.29946 -4.46502 1.457808 17.72219 -0.6464885 -3.628347 -17.93454 5.018399 -4.504276 -34.61346 10.18567 89.34281 30.48529 -5.172339 -0 0 35.83761 -17.67842 15.92413 17.55358 0.05827901 -15.58796 -3.965987 -88.89805 10.69153 43.03516 0 0 -20.86637 5.848673 8.508445 11.17098
-291.955 48.93 524.9096 14.52033 -8.842231 59.23025 7.162095 -0.1118641 8.109037 -0 33.03224 -0 -9.5044 -1.32348 -2.422005 3.923049 -9.664069 4.154261 -0 43.96691 -0 22.87082 5.35538 5.512125 1.087589 -1.993336 10.22329 -1.765826 14.29946 -4.46502 1.457808 17.72219 -0.6464885 -3.628347 -17.93454 5.018399 -4.504276 -34.61346 10.18567 89.34281 30.48529 -5.172339 -0 0 35.83761 -17.67842 15.92413 17.55358 0.05827901 -15.58796 -3.965987 -88.89805 10.69153 43.03516 0 0 -20.86637 5.848673 8.508445 11.17098
-285.7325 49.04139 526.4374 14.39523 -9.047151 58.4257 7.162095 -0.1118641 8.109037 -0 33.03224 -0 -9.5044 -1.32348 -2.422005 3.923049 -9.664069 4.154261 -0 43.96691 -0 22.87082 5.35538 5.512125 1.087589 -1.993336 10.22329 -1.765826 14.29946 -4.46502 1.457808 17.72219 -0.6464885 -3.628347 -17.93454 5.018399 -4.504276 -34.61346 10.18567 89.34281 30.48529 -5.172339 -0 0 35.83761 -17.67842 15.92413 17.55358 0.05827902 -15.58796 -3.965987 -88.89805 10.69153 43.03516 0 0 -20.86637 5.848673 8.508445 11.17098
-279.5326 49.15278 528.0542 14.26716 -9.250315 57.62023 7.162095 -0.1118641 8.109037 -0 33.03224 -0 -9.5044 -1.32348 -2.422005 3.923049 -9.664069 4.154261 -0 43.96691 -0 22.87082 5.35538 5.512125 1.087589 -1.993336 10.22329 -1.765826 14.29946 -4.46502 1.457808 17.72219 -0.6464885 -3.628347 -17.93454 5.018399 -4.504276 -34.61346 10.18567 89.34281 30.48529 -5.172339 -0 0 35.83761 -17.67842 15.92413 17.55358 0.05827902 -15.58796 -3.965987 -88.89805 10.69153 43.03516 0 0 -20.86637 5.848673 8.508445 11.17098
-273.3564 49.26417 529.7596 14.13614 -9.451681 56.81383 7.162095 -0.1118641 8.109037 -0 33.03224 -0 -9.5044 -1.32348 -2.422005 3.923049 -9.664069 4.154261 -0 43.96691 -0 22.87082 5.35538 5.512125 1.087589 -1.993336 10.22329 -1.765826 14.29946 -4.46502 1.457808 17.72219 -0.6464885 -3.628347 -17.93454 5.018399 -4.504276 -34.61346 10.18567 89.34281 30.48529 -5.172339 -0 0 35.83761 -17.67842 15.92413 17.55358 0.05827902 -15.58796 -3.965987 -88.89805 10.69153 43.03516 0 0 -20.86637 5.848673 8.508445 11.17098
